<?xml version="1.0" encoding="UTF-8"?>
<svg width="175px" height="140px" viewBox="0 0 175 140" version="1.1" xmlns="http://www.w3.org/2000/svg" xmlns:xlink="http://www.w3.org/1999/xlink">
    <!-- Generator: Sketch 49.2 (51160) - http://www.bohemiancoding.com/sketch -->
    <title>Car</title>
    <desc>Created with Sketch.</desc>
    <defs></defs>
    <g id="Welcome" stroke="none" stroke-width="1" fill="none" fill-rule="evenodd">
        <g id="Desktop-Copy-4" transform="translate(-186.000000, -216.000000)" fill="#DB7DCF">
            <g id="Car" transform="translate(186.000000, 216.000000)">
                <path d="M12.3052887,51.3983145 L26.7933203,15.0863693 C30.4273047,5.97874791 39.2757422,0 49.1194922,0 L126.658164,0 C136.109531,0 144.683164,5.51737856 148.563242,14.098304 L165.430173,51.3983145 L165.798828,51.3983145 C170.880664,51.3983145 175,55.5002827 175,60.5576528 L175,103.711338 C175,108.768708 170.880664,112.870676 165.798828,112.870676 L161.328672,112.870676 L161.328672,132.746304 C161.328672,136.706732 158.103477,139.915902 154.124961,139.915902 L150.758945,139.915902 C146.78043,139.915902 143.555234,136.706732 143.555234,132.746304 L143.555234,112.870676 L31.4458594,112.870676 L31.4458594,132.746304 C31.4458594,136.706732 28.2206641,139.915902 24.2421484,139.915902 L20.8761328,139.915902 C16.8976172,139.915902 13.6724219,136.706732 13.6724219,132.746304 L13.6724219,112.870676 L9.20253906,112.870676 C4.12070312,112.870676 0,108.768708 0,103.711338 L0,60.5576528 C0,55.5002827 4.12070312,51.3983145 9.20253906,51.3983145 L12.3052887,51.3983145 Z M32.498709,51.3983145 L142.427297,51.3983145 L130.823164,25.7357621 C128.006758,19.5093174 121.784688,15.5053392 114.925508,15.5053392 L58.6548047,15.5053392 C51.5098828,15.5053392 45.0895703,19.8427554 42.4522656,26.4529941 L32.498709,51.3983145 Z M37.5982031,81.9989426 C37.5982031,75.0471001 31.9366797,69.409956 24.9517188,69.409956 C17.9667578,69.409956 12.3052344,75.0471001 12.3052344,81.9989426 C12.3052344,88.9507852 17.9667578,94.5879292 24.9517188,94.5879292 C31.9366797,94.5879292 37.5982031,88.9507852 37.5982031,81.9989426 Z M165.088438,81.9989426 C165.088438,75.0471001 159.426914,69.409956 152.441953,69.409956 C145.456992,69.409956 139.795469,75.0471001 139.795469,81.9989426 C139.795469,88.9507852 145.456992,94.5879292 152.441953,94.5879292 C159.426914,94.5879292 165.088438,88.9507852 165.088438,81.9989426 Z" id="Combined-Shape"></path>
            </g>
        </g>
    </g>
</svg>