<?xml version="1.0" encoding="UTF-8"?>
<svg width="189px" height="175px" viewBox="0 0 189 175" version="1.1" xmlns="http://www.w3.org/2000/svg" xmlns:xlink="http://www.w3.org/1999/xlink">
    <!-- Generator: Sketch 49.2 (51160) - http://www.bohemiancoding.com/sketch -->
    <title>House</title>
    <desc>Created with Sketch.</desc>
    <defs></defs>
    <g id="Welcome" stroke="none" stroke-width="1" fill="none" fill-rule="evenodd">
        <g id="Desktop-Copy-4" transform="translate(-658.000000, -187.000000)" fill="#828282">
            <g id="House" transform="translate(658.000000, 187.000000)">
                <path d="M163.440595,43.1282632 L137.337806,23.5084459 L137.337806,0.955006497 L163.440595,0.955006497 L163.440595,43.1282632 Z M94.1667622,0.123542544 L188.333038,70.9077454 L181.988576,81.9267161 L94.1667622,15.9104623 L6.34494808,81.9267161 L0.000486538461,70.9077454 L94.1667622,0.123542544 Z M94.1667622,24.9799728 L170.464102,82.3335855 L170.464102,161.736523 C170.464102,168.916091 164.659698,174.73455 157.501096,174.73455 L114.607865,174.73455 L114.607865,123.118088 L73.7256596,123.118088 L73.7256596,174.73455 L30.8324288,174.73455 C23.6738263,174.73455 17.8694224,168.916091 17.8694224,161.736523 L17.8694224,82.3335855 L94.1667622,24.9799728 Z" id="Combined-Shape"></path>
            </g>
        </g>
    </g>
</svg>