<?xml version="1.0" encoding="UTF-8"?>
<svg width="156px" height="188px" viewBox="0 0 156 188" version="1.1" xmlns="http://www.w3.org/2000/svg" xmlns:xlink="http://www.w3.org/1999/xlink">
    <!-- Generator: Sketch 49.2 (51160) - http://www.bohemiancoding.com/sketch -->
    <title>Lock</title>
    <desc>Created with Sketch.</desc>
    <defs></defs>
    <g id="Welcome" stroke="none" stroke-width="1" fill="none" fill-rule="evenodd">
        <g id="Question1" transform="translate(-674.000000, -255.000000)" fill="#828282">
            <g id="Lock" transform="translate(674.000000, 255.000000)">
                <path d="M0.0929519918,187.852185 L0.0929519918,71.796359 L155.44836,71.796359 L155.44836,187.852185 L0.0929519918,187.852185 Z M68.1424547,132.017057 L68.1424547,155.353772 L87.8282419,155.353772 L87.8282419,132.015766 C92.0415161,128.961826 94.7821407,123.998533 94.7821407,118.39465 C94.7821407,109.111682 87.2616676,101.586541 77.9844575,101.586541 C68.7072474,101.586541 61.1867743,109.111682 61.1867743,118.39465 C61.1867743,123.999323 63.9281715,128.963225 68.1424547,132.017057 Z" id="Combined-Shape"></path>
                <path d="M155,87.0231789 L155,72.7559014 L129.440837,72.7559014 C126.515595,46.8205948 104.458174,26.5991945 77.7699432,26.5991945 C51.0817121,26.5991945 29.0258351,46.8205948 26.1008067,72.7559014 L0.310723209,72.7559014 C3.31131178,32.5721506 36.845398,0.903894862 77.7699432,0.903894862 C120.671027,0.903894862 155.447647,35.7021016 155.447647,78.6298142 C155.447647,81.4656378 155.29587,84.2659893 155,87.0231789 Z" id="Combined-Shape"></path>
            </g>
        </g>
    </g>
</svg>