<?xml version="1.0" encoding="UTF-8"?>
<svg width="248px" height="187px" viewBox="0 0 248 187" version="1.1" xmlns="http://www.w3.org/2000/svg" xmlns:xlink="http://www.w3.org/1999/xlink">
    <!-- Generator: Sketch 49.2 (51160) - http://www.bohemiancoding.com/sketch -->
    <title>Money</title>
    <desc>Created with Sketch.</desc>
    <defs></defs>
    <g id="Welcome" stroke="none" stroke-width="1" fill="none" fill-rule="evenodd">
        <g id="Desktop-Copy-10" transform="translate(-149.000000, -183.000000)" fill="#828282">
            <g id="Money" transform="translate(149.000000, 183.000000)">
                <path d="M173.422265,16.2161254 L185.480157,9.28734511 L231.949907,89.3917634 L64.6107312,185.548351 L62.6580567,182.182225 L211.605716,78.6881703 L215.396272,76.0549827 L212.750587,72.2807983 L173.422265,16.2161254 Z M195.397766,21.7808166 L205.626653,16.6131888 L247.691038,99.0931502 L75.391781,186.138632 L73.7639191,182.946716 L231.103658,92.5367125 L235.106855,90.2347821 L232.79554,86.2504948 L195.397766,21.7808166 Z M0,110.08779 L158.435992,0 L211.63475,75.8440833 L53.2002982,185.93034 L0,110.08779 Z M123.001074,81.0258039 C116.375306,71.5803745 103.311756,69.2692425 93.821498,75.8637134 C84.3312403,82.4581843 82.0075987,95.4600271 88.6333672,104.905457 C95.2591356,114.349352 108.324227,116.662018 117.814484,110.067547 C127.304742,103.47461 129.626843,90.4712332 123.001074,81.0258039 Z M69.185504,145.037873 L71.0854046,143.717445 L68.4335563,139.935593 C71.0268513,137.768619 72.6185766,135.42068 73.2071914,132.88871 C73.7958061,130.355207 73.236468,127.873845 71.5307179,125.441559 C69.9513196,123.190237 68.1608212,121.823802 66.1592228,121.339185 C64.1576243,120.856101 61.5597067,121.092275 58.36547,122.047707 C58.2576086,122.086047 58.0495903,122.153525 57.7444968,122.250142 C57.4378624,122.349826 57.1574229,122.437241 56.90626,122.516988 C56.6550972,122.596735 56.4640285,122.651944 56.333054,122.685684 L51.0139487,115.102042 C53.0972136,113.770879 55.6673954,112.816981 58.7244942,112.241882 L57.6350946,107.317499 C54.400795,107.61195 51.2019356,108.79282 48.0354347,110.857043 L45.9799056,107.924804 L44.0784641,109.245232 L46.1632698,112.215811 C43.5884654,114.272366 41.9828722,116.546691 41.3449494,119.035721 C40.7085674,121.52475 41.224761,123.961637 42.8935302,126.341781 C45.4560076,129.994811 49.1140481,131.16648 53.86457,129.85372 C54.5595053,129.69576 55.8415145,129.303159 57.7090566,128.675917 L63.5828774,137.050895 C60.9433562,138.768525 57.853899,139.815972 54.3098833,140.191703 L55.9401305,145.229573 C59.6890828,144.901383 63.2253941,143.611627 66.5490645,141.360305 L69.185504,145.037873 Z M167.137167,76.9784857 L169.037068,75.6565243 L166.385219,71.8746719 C168.978514,69.7076981 170.57024,67.3597598 171.158854,64.8277897 C171.747469,62.294286 171.188131,59.8129246 169.482381,57.3821719 C167.902983,55.1293166 166.112484,53.7628809 164.110886,53.278264 C162.109287,52.7967143 159.51137,53.0313547 156.317133,53.9867862 C156.209272,54.0251262 156.001253,54.0926045 155.69616,54.1907547 C155.389525,54.288905 155.109086,54.3763201 154.857923,54.4560672 C154.60676,54.5373479 154.415692,54.5925574 154.284717,54.6247629 L148.965612,47.042655 C151.048877,45.7099584 153.619058,44.7560606 156.676157,44.1824949 L155.586758,39.2565785 C152.352458,39.5510293 149.153599,40.7334333 145.987098,42.7961225 L143.930028,39.8638833 L142.030127,41.1858447 L144.114933,44.1564238 C141.540128,46.2129785 139.934535,48.4873042 139.296612,50.9763336 C138.66023,53.4653629 139.176424,55.9007164 140.845193,58.2808603 C143.407671,61.9338904 147.065711,63.1055592 151.814692,61.794333 C152.511168,61.6348389 153.793178,61.2437714 155.66072,60.6149963 L161.53454,68.9899743 C158.895019,70.7091375 155.804021,71.7550513 152.261546,72.1307828 L153.891794,77.1701854 C157.640746,76.8404619 161.177057,75.5507061 164.500728,73.2993844 L167.137167,76.9784857 Z M151.937962,55.3087476 C151.276926,55.5173169 150.834695,55.6538071 150.608186,55.715151 C148.711367,56.325523 147.210554,55.8455069 146.110368,54.2781698 C145.421596,53.1862481 145.168892,52.1694727 145.349175,51.2201756 C145.530998,50.2693449 146.119613,49.3430518 147.119642,48.4397627 L151.937962,55.3087476 Z M163.352775,67.5529931 L157.965871,59.8727349 C158.001311,59.8681341 158.115336,59.8328613 158.307945,59.765383 C158.500555,59.6963711 158.626907,59.6641656 158.682378,59.6610984 C161.155485,58.9403074 162.969096,59.4019203 164.123213,61.0474709 C165.730347,63.3386661 165.473021,65.5056399 163.352775,67.5529931 Z M53.9862993,123.369668 C53.3252633,123.578238 52.8830318,123.713194 52.656523,123.776072 C50.7597041,124.386444 49.2604314,123.906428 48.1602457,122.339091 C47.469933,121.247169 47.2172293,120.22886 47.3975118,119.279563 C47.5793353,118.330266 48.16795,117.403973 49.1679788,116.49915 L53.9862993,123.369668 Z M65.4011116,135.613914 L60.0142077,127.933656 C60.0496479,127.929055 60.1636727,127.893782 60.3562823,127.826304 C60.5488918,127.757292 60.6752437,127.723553 60.7307152,127.722019 C63.2038218,127.001228 65.0174334,127.462841 66.1730906,129.108392 C67.7786838,131.398053 67.5213575,133.566561 65.4011116,135.613914 Z" id="Combined-Shape"></path>
            </g>
        </g>
    </g>
</svg>