<?xml version="1.0" encoding="UTF-8"?>
<svg width="177px" height="191px" viewBox="0 0 177 191" version="1.1" xmlns="http://www.w3.org/2000/svg" xmlns:xlink="http://www.w3.org/1999/xlink">
    <!-- Generator: Sketch 49.2 (51160) - http://www.bohemiancoding.com/sketch -->
    <title>Palette</title>
    <desc>Created with Sketch.</desc>
    <defs></defs>
    <g id="Welcome" stroke="none" stroke-width="1" fill="none" fill-rule="evenodd">
        <g id="Question1" transform="translate(-184.000000, -253.000000)" fill="#DB7DCF">
            <g id="Palette" transform="translate(184.000000, 253.000000)">
                <path d="M141.647445,55.9372594 C135.889149,69.732131 117.125314,71.5778631 117.836299,77.7784233 C118.756802,85.7869074 149.787714,80.3064233 165.458591,96.6413248 C181.129468,112.976226 179.219767,148.81677 163.473327,168.121341 C136.32364,201.406388 57.1552299,198.880107 20.611604,152.236702 C-9.10724769,114.304672 -6.88327121,51.981137 28.5492251,21.1880003 C55.7864969,-2.48342879 103.192402,-7.99656546 126.766552,13.24654 C137.783393,23.1763728 147.331895,42.3159623 141.647445,55.9372594 Z M95.8846045,34.5070624 C95.8846045,24.9157857 88.1152843,17.1410256 78.5307185,17.1410256 C68.9444354,17.1410256 61.1751152,24.9157857 61.1751152,34.5070624 C61.1751152,44.0983391 68.9444354,51.8730992 78.5307185,51.8730992 C88.1152843,51.8730992 95.8846045,44.0983391 95.8846045,34.5070624 Z M49.2021513,60.53369 C49.2021513,52.3464758 42.5697211,45.7094017 34.3899528,45.7094017 C26.2084671,45.7094017 19.5760369,52.3464758 19.5760369,60.53369 C19.5760369,68.7209042 26.2084671,75.3562597 34.3899528,75.3562597 C42.5697211,75.3562597 49.2021513,68.7209042 49.2021513,60.53369 Z M45.971804,108.707124 C45.971804,101.413561 40.0623808,95.5 32.7739204,95.5 C25.4854601,95.5 19.5760369,101.413561 19.5760369,108.707124 C19.5760369,116.002407 25.4854601,121.915967 32.7739204,121.915967 C40.0623808,121.915967 45.971804,116.002407 45.971804,108.707124 Z M72.4403204,146.02885 C72.4403204,139.761266 67.3620977,134.679487 61.0988991,134.679487 C54.8339831,134.679487 49.7557604,139.761266 49.7557604,146.02885 C49.7557604,152.296434 54.8339831,157.378212 61.0988991,157.378212 C67.3620977,157.378212 72.4403204,152.296434 72.4403204,146.02885 Z M106.538062,160.641799 C106.538062,156.219947 102.957374,152.636752 98.5386164,152.636752 C94.1215759,152.636752 90.5391705,156.219947 90.5391705,160.641799 C90.5391705,165.061932 94.1215759,168.645127 98.5386164,168.645127 C102.957374,168.645127 106.538062,165.061932 106.538062,160.641799 Z" id="Combined-Shape"></path>
            </g>
        </g>
    </g>
</svg>