<?xml version="1.0" encoding="UTF-8"?>
<svg width="140px" height="141px" viewBox="0 0 140 141" version="1.1" xmlns="http://www.w3.org/2000/svg" xmlns:xlink="http://www.w3.org/1999/xlink">
    <!-- Generator: Sketch 49.2 (51160) - http://www.bohemiancoding.com/sketch -->
    <title>Frown</title>
    <desc>Created with Sketch.</desc>
    <defs></defs>
    <g id="Welcome" stroke="none" stroke-width="1" fill="none" fill-rule="evenodd">
        <g id="Answer2" transform="translate(-202.000000, -109.000000)">
            <g id="Frown" transform="translate(202.000000, 108.000000)">
                <g id="Group-5" transform="translate(0.000000, 0.424637)"></g>
                <path d="M69.7833744,1.24818275 C31.2428066,1.24818275 -0.000124236245,32.6563275 -0.000124236245,71.4019485 C-0.000124236245,110.145072 31.2428066,141.554465 69.7833744,141.554465 C108.323942,141.554465 139.566873,110.145072 139.566873,71.4019485 C139.566873,32.6563275 108.323942,1.24818275 69.7833744,1.24818275 M69.7833744,11.2396397 C102.781763,11.2396397 129.627973,38.2278137 129.627973,71.4019485 C129.627973,104.573585 102.781763,131.563008 69.7833744,131.563008 C36.7849855,131.563008 9.93877534,104.573585 9.93877534,71.4019485 C9.93877534,38.2278137 36.7849855,11.2396397 69.7833744,11.2396397" id="Fill-3" fill="#FFFFFF"></path>
                <path d="M33.0745458,56.4146382 C33.0745458,63.3961687 37.2463989,69.0550801 42.3922641,69.0550801 C47.5381294,69.0550801 51.7099825,63.3961687 51.7099825,56.4146382 C51.7099825,49.4318588 47.5381294,43.7729474 42.3922641,43.7729474 C37.2463989,43.7729474 33.0745458,49.4318588 33.0745458,56.4146382" id="Fill-6" fill="#FFFFFF"></path>
                <path d="M86.0654039,56.4146382 C86.0654039,63.3961687 90.237257,69.0550801 95.3831223,69.0550801 C100.528988,69.0550801 104.700841,63.3961687 104.700841,56.4146382 C104.700841,49.4318588 100.528988,43.7729474 95.3831223,43.7729474 C90.237257,43.7729474 86.0654039,49.4318588 86.0654039,56.4146382" id="Fill-8" fill="#FFFFFF"></path>
                <path d="M68.8877553,106.922677 C55.1608927,106.922677 43.9932966,95.6960259 43.9932966,81.8965749 L38.6014436,81.8965749 C38.6014436,98.7121969 52.1605873,112.343042 68.8877553,112.343042 C85.6149233,112.343042 99.1740671,98.7121969 99.1740671,81.8965749 L93.782214,81.8965749 C93.782214,95.6960259 82.614618,106.922677 68.8877553,106.922677" id="Fill-10" stroke="#FFFFFF" fill="#FFFFFF" transform="translate(68.887755, 97.119808) rotate(180.000000) translate(-68.887755, -97.119808) "></path>
            </g>
        </g>
    </g>
</svg>