<?xml version="1.0" encoding="UTF-8"?>
<svg width="189px" height="204px" viewBox="0 0 189 204" version="1.1" xmlns="http://www.w3.org/2000/svg" xmlns:xlink="http://www.w3.org/1999/xlink">
    <!-- Generator: Sketch 49.2 (51160) - http://www.bohemiancoding.com/sketch -->
    <title>Medal</title>
    <desc>Created with Sketch.</desc>
    <defs></defs>
    <g id="Welcome" stroke="none" stroke-width="1" fill="none" fill-rule="evenodd">
        <g id="Desktop-Copy-10" transform="translate(-658.000000, -179.000000)" fill="#36D2B5">
            <g id="Medal" transform="translate(658.000000, 179.000000)">
                <path d="M131.715902,110.10513 C128.748185,107.287468 125.45961,104.803235 121.910486,102.712615 L169.855996,7.59271321 L159.199,7.59271321 L113.492732,98.6915816 C109.261061,97.1047123 104.776868,96.0327354 100.116803,95.5521379 L149.701165,0.00170801887 L188.852805,0.00170801887 L131.715902,110.10513 Z" id="Combined-Shape"></path>
                <path d="M88.7435694,95.5667203 C84.2997596,96.036632 80.0168182,97.044427 75.9613605,98.5236298 L28.6496537,7.59271321 L17.9926573,7.59271321 L67.3787591,102.543441 C63.6794651,104.691702 60.2592393,107.265974 57.185569,110.198913 L0,0.00170801887 L39.1516393,0.00170801887 L88.7435694,95.5667203 Z" id="Combined-Shape"></path>
                <path d="M148.830369,149.466074 C148.830369,179.483557 124.473148,203.81903 94.4264973,203.81903 C64.3798463,203.81903 40.0226255,179.483557 40.0226255,149.466074 C40.0226255,119.450489 64.3798463,95.115016 94.4264973,95.115016 C124.473148,95.115016 148.830369,119.450489 148.830369,149.466074 Z M94.4261174,192.998161 C118.4528,192.998161 138.000125,173.469812 138.000125,149.468352 C138.000125,125.463095 118.4528,105.934746 94.4261174,105.934746 C70.3994345,105.934746 50.8521095,125.463095 50.8521095,149.468352 C50.8521095,173.469812 70.3994345,192.998161 94.4261174,192.998161 Z" id="Combined-Shape"></path>
                <path d="M94.4261174,110.464792 C115.95287,110.464792 133.465678,127.962496 133.465678,149.468352 C133.465678,170.974207 115.95287,188.470014 94.4261174,188.470014 C72.8993645,188.470014 55.386557,170.974207 55.386557,149.468352 C55.386557,127.962496 72.8993645,110.464792 94.4261174,110.464792 Z M92.5357828,168.590572 L99.6328485,168.590572 L99.6328485,127.73476 L93.4609089,127.73476 C93.2177546,127.903664 91.8994024,128.58877 89.5058524,129.793872 C87.1142021,130.998974 85.6913696,131.704955 85.2430539,131.909918 L85.2430539,137.514117 C85.524201,137.438205 86.7437717,136.948573 88.9036656,136.043323 C91.0635596,135.138073 92.2755317,134.600996 92.5357828,134.432092 L92.5357828,168.590572 Z" id="Combined-Shape"></path>
            </g>
        </g>
    </g>
</svg>