<?xml version="1.0" encoding="UTF-8"?>
<svg width="225px" height="192px" viewBox="0 0 225 192" version="1.1" xmlns="http://www.w3.org/2000/svg" xmlns:xlink="http://www.w3.org/1999/xlink">
    <!-- Generator: Sketch 49.2 (51160) - http://www.bohemiancoding.com/sketch -->
    <title>Multiple</title>
    <desc>Created with Sketch.</desc>
    <defs></defs>
    <g id="Welcome" stroke="none" stroke-width="1" fill="none" fill-rule="evenodd">
        <g id="Desktop-Copy-7" transform="translate(-160.000000, -185.000000)" fill="#36D2B5">
            <g id="Multiple" transform="translate(160.000000, 185.000000)">
                <path d="M112.047921,38.366267 C101.4495,38.366267 92.8571429,29.7773324 92.8571429,19.1831335 C92.8571429,8.5889346 101.4495,0 112.047921,0 C122.646342,0 131.238699,8.5889346 131.238699,19.1831335 C131.238699,29.7773324 122.646342,38.366267 112.047921,38.366267 Z M127.610148,47.3302326 C140.784422,47.3302326 151.581763,57.442494 152.696055,70.3250533 C152.755057,70.6822937 152.807316,71.0445894 152.807316,71.4220509 L152.807316,118.906373 C152.807316,122.702894 149.727419,125.78325 145.929384,125.78325 C142.129664,125.78325 139.049767,122.702894 139.049767,118.906373 L139.049767,72.5156782 L135.039326,72.5156782 L135.039326,130.986826 L135.039326,181.549819 C135.039326,187.142652 130.504611,191.673876 124.911234,191.673876 C119.317857,191.673876 114.783142,187.142652 114.783142,181.549819 L114.783142,130.986826 L109.452745,130.986826 L109.452745,181.549819 C109.452745,187.142652 104.91803,191.673876 99.3246535,191.673876 C93.7312767,191.673876 89.1965618,187.142652 89.1965618,181.549819 L89.1965618,130.986826 L89.1965618,72.5156782 L85.184435,72.5156782 L85.184435,118.906373 C85.184435,122.702894 82.1062233,125.78325 78.3065032,125.78325 C74.5084688,125.78325 71.4285714,122.702894 71.4285714,118.906373 L71.4285714,71.4220509 C71.4285714,71.0445894 71.4808302,70.6822937 71.5398321,70.3250533 C72.6524387,57.442494 83.4497801,47.3302326 96.6257396,47.3302326 L127.610148,47.3302326 Z M224.233388,97.1164538 C224.278903,97.3978648 224.319362,97.680961 224.319362,97.9741677 L224.319362,135.091779 C224.319362,138.059233 221.913771,140.46555 218.943449,140.46555 C215.974812,140.46555 213.567536,138.059233 213.567536,135.091779 L213.567536,98.8301965 L210.432008,98.8301965 L210.432008,144.533372 L210.432008,184.058985 C210.432008,188.428439 206.886839,191.970511 202.513958,191.970511 C198.142763,191.970511 194.597593,188.428439 194.597593,184.058985 L194.597593,144.533372 L190.432062,144.533372 L190.432062,184.058985 C190.432062,188.428439 186.886892,191.970511 182.514011,191.970511 C178.142816,191.970511 174.597647,188.428439 174.597647,184.058985 L174.597647,144.533372 L174.597647,98.8301965 L171.462119,98.8301965 L171.462119,135.091779 C171.462119,138.059233 169.054843,140.46555 166.086206,140.46555 C163.117569,140.46555 160.710293,138.059233 160.710293,135.091779 L160.710293,97.9741677 C160.710293,97.680961 160.750752,97.3978648 160.796267,97.1164538 C161.666123,87.0463198 170.106762,79.1415342 180.405116,79.1415342 L204.624539,79.1415342 C214.922893,79.1415342 223.363531,87.0463198 224.233388,97.1164538 Z M192.514996,71.8251841 C184.229448,71.8251841 177.515036,65.1117614 177.515036,56.8311994 C177.515036,48.5489523 184.229448,41.8355296 192.514996,41.8355296 C200.798858,41.8355296 207.514956,48.5489523 207.514956,56.8311994 C207.514956,65.1117614 200.798858,71.8251841 192.514996,71.8251841 Z M43.9147515,79.1415342 C54.2131057,79.1415342 62.653744,87.0463198 63.5236001,97.1164538 C63.5691158,97.3978648 63.6095742,97.680961 63.6095742,97.9741677 L63.6095742,135.091779 C63.6095742,138.059233 61.2022981,140.46555 58.2336614,140.46555 C55.2650247,140.46555 52.8577485,138.059233 52.8577485,135.091779 L52.8577485,98.8301965 L49.7222208,98.8301965 L49.7222208,144.533372 L49.7222208,184.058985 C49.7222208,188.428439 46.1770516,191.970511 41.8058562,191.970511 C37.4329751,191.970511 33.8878058,188.428439 33.8878058,184.058985 L33.8878058,144.533372 L29.7222741,144.533372 L29.7222741,184.058985 C29.7222741,188.428439 26.1771049,191.970511 21.8042237,191.970511 C17.4330284,191.970511 13.8878591,188.428439 13.8878591,184.058985 L13.8878591,144.533372 L13.8878591,98.8301965 L10.7523314,98.8301965 L10.7523314,135.091779 C10.7523314,138.059233 8.3450553,140.46555 5.37641858,140.46555 C2.40609608,140.46555 0.000505730277,138.059233 0.000505730277,135.091779 L0.000505730277,97.9741677 C0.000505730277,97.680961 0.0409641525,97.3978648 0.0864798774,97.1164538 C0.956335954,87.0463198 9.39528851,79.1415342 19.6953285,79.1415342 L43.9147515,79.1415342 Z M31.8048714,71.8251841 C23.5210095,71.8251841 16.8049114,65.1117614 16.8049114,56.8311994 C16.8049114,48.5489523 23.5210095,41.8355296 31.8048714,41.8355296 C40.0904191,41.8355296 46.8048314,48.5489523 46.8048314,56.8311994 C46.8048314,65.1117614 40.0904191,71.8251841 31.8048714,71.8251841 Z" id="Combined-Shape"></path>
            </g>
        </g>
    </g>
</svg>