<?xml version="1.0" encoding="UTF-8"?>
<svg width="83px" height="193px" viewBox="0 0 83 193" version="1.1" xmlns="http://www.w3.org/2000/svg" xmlns:xlink="http://www.w3.org/1999/xlink">
    <!-- Generator: Sketch 49.2 (51160) - http://www.bohemiancoding.com/sketch -->
    <title>Single</title>
    <desc>Created with Sketch.</desc>
    <defs></defs>
    <g id="Welcome" stroke="none" stroke-width="1" fill="none" fill-rule="evenodd">
        <g id="Desktop-Copy-7" transform="translate(-711.000000, -185.000000)" fill="#36D2B5">
            <g id="Single" transform="translate(711.000000, 185.000000)">
                <path d="M56.767819,47.5767442 C70.0795634,47.5767442 80.9895728,57.7416737 82.1154925,70.6913297 C82.1751101,71.0504307 82.2279142,71.4146133 82.2279142,71.7940407 L82.2279142,119.525677 C82.2279142,123.341972 79.1158787,126.438371 75.2782127,126.438371 C71.4388433,126.438371 68.3268078,123.341972 68.3268078,119.525677 L68.3268078,72.893364 L64.2745187,72.893364 L64.2745187,131.669049 L64.2745187,182.495391 C64.2745187,188.117354 59.6924851,192.672177 54.0407425,192.672177 C48.389,192.672177 43.8069664,188.117354 43.8069664,182.495391 L43.8069664,131.669049 L38.4209478,131.669049 L38.4209478,182.495391 C38.4209478,188.117354 33.8389142,192.672177 28.1871716,192.672177 C22.5354291,192.672177 17.9533955,188.117354 17.9533955,182.495391 L17.9533955,131.669049 L17.9533955,72.893364 L13.899403,72.893364 L13.899403,119.525677 C13.899403,123.341972 10.7890709,126.438371 6.94970149,126.438371 C3.11203545,126.438371 0,123.341972 0,119.525677 L0,71.7940407 C0,71.4146133 0.0528041045,71.0504307 0.112421642,70.6913297 C1.23663806,57.7416737 12.1466474,47.5767442 25.4600951,47.5767442 L56.767819,47.5767442 Z M38.336682,38.5660913 C27.627669,38.5660913 18.9456522,29.9324227 18.9456522,19.2830457 C18.9456522,8.63366863 27.627669,-1.42108547e-14 38.336682,-1.42108547e-14 C49.0456951,-1.42108547e-14 57.7277119,8.63366863 57.7277119,19.2830457 C57.7277119,29.9324227 49.0456951,38.5660913 38.336682,38.5660913 Z" id="Combined-Shape"></path>
            </g>
        </g>
    </g>
</svg>