<?xml version="1.0" encoding="UTF-8"?>
<svg width="135px" height="135px" viewBox="0 0 135 135" version="1.1" xmlns="http://www.w3.org/2000/svg" xmlns:xlink="http://www.w3.org/1999/xlink">
    <!-- Generator: Sketch 49.2 (51160) - http://www.bohemiancoding.com/sketch -->
    <title>Page 1</title>
    <desc>Created with Sketch.</desc>
    <defs></defs>
    <g id="Welcome" stroke="none" stroke-width="1" fill="none" fill-rule="evenodd">
        <g id="Desktop-Copy-14" transform="translate(-444.000000, -73.000000)">
            <g id="IntroTop">
                <g id="Page-1" transform="translate(444.000000, 72.000000)">
                    <g id="Group-5" transform="translate(0.000000, 0.408000)"></g>
                    <path d="M67.40388,1.19928 C30.17748,1.19928 -0.00012,31.37688 -0.00012,68.60448 C-0.00012,105.82968 30.17748,136.00848 67.40388,136.00848 C104.63028,136.00848 134.80788,105.82968 134.80788,68.60448 C134.80788,31.37688 104.63028,1.19928 67.40388,1.19928 M67.40388,10.79928 C99.27708,10.79928 125.20788,36.73008 125.20788,68.60448 C125.20788,100.47648 99.27708,126.40848 67.40388,126.40848 C35.53068,126.40848 9.59988,100.47648 9.59988,68.60448 C9.59988,36.73008 35.53068,10.79928 67.40388,10.79928" id="Fill-3" fill="#FFFFFF"></path>
                    <path d="M31.94676,54.20436 C31.94676,60.91236 35.97636,66.34956 40.94676,66.34956 C45.91716,66.34956 49.94676,60.91236 49.94676,54.20436 C49.94676,47.49516 45.91716,42.05796 40.94676,42.05796 C35.97636,42.05796 31.94676,47.49516 31.94676,54.20436" id="Fill-6" fill="#FFFFFF"></path>
                    <path d="M83.13072,54.20436 C83.13072,60.91236 87.16032,66.34956 92.13072,66.34956 C97.10112,66.34956 101.13072,60.91236 101.13072,54.20436 C101.13072,47.49516 97.10112,42.05796 92.13072,42.05796 C87.16032,42.05796 83.13072,47.49516 83.13072,54.20436" id="Fill-8" fill="#FFFFFF"></path>
                    <path d="M66.5388,107.53764 C53.28,107.53764 42.4932,96.75084 42.4932,83.49204 L37.2852,83.49204 C37.2852,99.64884 50.382,112.74564 66.5388,112.74564 C82.6956,112.74564 95.7924,99.64884 95.7924,83.49204 L90.5844,83.49204 C90.5844,96.75084 79.7976,107.53764 66.5388,107.53764" id="Fill-10" stroke="#FFFFFF" fill="#FFFFFF"></path>
                </g>
            </g>
        </g>
    </g>
</svg>